<?xml version="1.0" encoding="UTF-8" standalone="no"?>
<!-- Created with Inkscape (http://www.inkscape.org/) -->

<svg
   xmlns:dc="http://purl.org/dc/elements/1.1/"
   xmlns:cc="http://creativecommons.org/ns#"
   xmlns:rdf="http://www.w3.org/1999/02/22-rdf-syntax-ns#"
   xmlns:svg="http://www.w3.org/2000/svg"
   xmlns="http://www.w3.org/2000/svg"
   xmlns:sodipodi="http://sodipodi.sourceforge.net/DTD/sodipodi-0.dtd"
   xmlns:inkscape="http://www.inkscape.org/namespaces/inkscape"
   width="10"
   height="10"
   viewBox="0 0 9.9999997 10"
   id="svg6510"
   version="1.1"
   inkscape:version="0.91 r13725"
   sodipodi:docname="R_0805.svg">
  <defs
     id="defs6512" />
  <sodipodi:namedview
     id="base"
     pagecolor="#ffffff"
     bordercolor="#666666"
     borderopacity="1.0"
     inkscape:pageopacity="0.0"
     inkscape:pageshadow="2"
     inkscape:zoom="31.678384"
     inkscape:cx="6.3230238"
     inkscape:cy="2.6901992"
     inkscape:document-units="px"
     inkscape:current-layer="layer1"
     showgrid="false"
     fit-margin-top="0"
     fit-margin-left="0"
     fit-margin-right="0"
     fit-margin-bottom="0"
     inkscape:window-width="1920"
     inkscape:window-height="1026"
     inkscape:window-x="1280"
     inkscape:window-y="27"
     inkscape:window-maximized="1"
     units="px" />
  <metadata
     id="metadata6515">
    <rdf:RDF>
      <cc:Work
         rdf:about="">
        <dc:format>image/svg+xml</dc:format>
        <dc:type
           rdf:resource="http://purl.org/dc/dcmitype/StillImage" />
        <dc:title></dc:title>
      </cc:Work>
    </rdf:RDF>
  </metadata>
  <g
     inkscape:label="Capa 1"
     inkscape:groupmode="layer"
     id="layer1"
     transform="translate(-158.24236,-671.53617)">
    <g
       id="g7775">
      <rect
         y="679.39838"
         x="155.78563"
         height="4.6062994"
         width="4.9606299"
         id="rect5787-6-4-1"
         style="opacity:1;fill:#283743;fill-opacity:1;fill-rule:nonzero;stroke:none;stroke-width:0.40000001;stroke-linecap:butt;stroke-linejoin:miter;stroke-miterlimit:4;stroke-dasharray:none;stroke-opacity:1" />
      <rect
         y="678.86688"
         x="160.74626"
         height="5.6692915"
         width="3.5433071"
         id="rect5787-6-3-4-3"
         style="opacity:1;fill:#d9dcdf;fill-opacity:1;fill-rule:nonzero;stroke:none;stroke-width:0.40000001;stroke-linecap:butt;stroke-linejoin:miter;stroke-miterlimit:4;stroke-dasharray:none;stroke-opacity:1" />
      <rect
         y="678.86688"
         x="152.24236"
         height="5.6692915"
         width="3.5433071"
         id="rect5787-6-3-8-5-8"
         style="opacity:1;fill:#d9dcdf;fill-opacity:1;fill-rule:nonzero;stroke:none;stroke-width:0.40000001;stroke-linecap:butt;stroke-linejoin:miter;stroke-miterlimit:4;stroke-dasharray:none;stroke-opacity:1" />
      <g
         id="text5612"
         style="font-style:normal;font-variant:normal;font-weight:normal;font-stretch:normal;font-size:2.08554006px;line-height:100%;font-family:'Liberation Sans';-inkscape-font-specification:'Liberation Sans, Normal';text-align:start;letter-spacing:0px;word-spacing:0px;writing-mode:lr-tb;text-anchor:start;fill:#ececec;fill-opacity:1;stroke:none;stroke-width:1px;stroke-linecap:butt;stroke-linejoin:miter;stroke-opacity:1">
        <path
           id="path7767"
           style=""
           d="m 157.04181,681.72843 q 0,0.20672 -0.0397,0.34827 -0.0387,0.14053 -0.10692,0.2281 -0.0672,0.0866 -0.15886,0.12424 -0.0917,0.0377 -0.19552,0.0377 -0.10489,0 -0.19552,-0.0377 -0.0906,-0.0377 -0.15784,-0.12424 -0.0662,-0.0866 -0.10489,-0.22709 -0.0377,-0.14154 -0.0377,-0.34928 0,-0.21691 0.0377,-0.35845 0.0387,-0.14257 0.10591,-0.22709 0.0672,-0.0845 0.15885,-0.11813 0.0917,-0.0346 0.1996,-0.0346 0.10285,0 0.19246,0.0346 0.0906,0.0336 0.15784,0.11813 0.0672,0.0845 0.10591,0.22709 0.0387,0.14154 0.0387,0.35845 z m -0.18636,0 q 0,-0.17108 -0.0204,-0.28412 -0.0204,-0.11405 -0.0601,-0.18126 -0.0397,-0.0682 -0.0978,-0.0957 -0.057,-0.0285 -0.13034,-0.0285 -0.0774,0 -0.13646,0.0285 -0.0591,0.0285 -0.0998,0.0967 -0.0397,0.0672 -0.0601,0.18126 -0.0204,0.11304 -0.0204,0.2831 0,0.16497 0.0204,0.278 0.0214,0.11304 0.0611,0.18228 0.0407,0.0682 0.0988,0.0988 0.0581,0.0295 0.13238,0.0295 0.0723,0 0.13035,-0.0295 0.0581,-0.0306 0.0978,-0.0988 0.0407,-0.0692 0.0621,-0.18228 0.0224,-0.11303 0.0224,-0.278 z" />
        <path
           id="path7769"
           style=""
           d="m 158.2027,681.72843 q 0,0.20672 -0.0397,0.34827 -0.0387,0.14053 -0.10693,0.2281 -0.0672,0.0866 -0.15886,0.12424 -0.0916,0.0377 -0.19552,0.0377 -0.10488,0 -0.19552,-0.0377 -0.0906,-0.0377 -0.15784,-0.12424 -0.0662,-0.0866 -0.10488,-0.22709 -0.0377,-0.14154 -0.0377,-0.34928 0,-0.21691 0.0377,-0.35845 0.0387,-0.14257 0.1059,-0.22709 0.0672,-0.0845 0.15886,-0.11813 0.0917,-0.0346 0.19959,-0.0346 0.10285,0 0.19247,0.0346 0.0906,0.0336 0.15784,0.11813 0.0672,0.0845 0.10591,0.22709 0.0387,0.14154 0.0387,0.35845 z m -0.18635,0 q 0,-0.17108 -0.0204,-0.28412 -0.0204,-0.11405 -0.0601,-0.18126 -0.0397,-0.0682 -0.0978,-0.0957 -0.057,-0.0285 -0.13035,-0.0285 -0.0774,0 -0.13645,0.0285 -0.0591,0.0285 -0.0998,0.0967 -0.0397,0.0672 -0.0601,0.18126 -0.0204,0.11304 -0.0204,0.2831 0,0.16497 0.0204,0.278 0.0214,0.11304 0.0611,0.18228 0.0407,0.0682 0.0988,0.0988 0.058,0.0295 0.13238,0.0295 0.0723,0 0.13035,-0.0295 0.058,-0.0306 0.0978,-0.0988 0.0407,-0.0692 0.0621,-0.18228 0.0224,-0.11303 0.0224,-0.278 z" />
        <path
           id="path7771"
           style=""
           d="m 159.3636,681.72843 q 0,0.20672 -0.0397,0.34827 -0.0387,0.14053 -0.10692,0.2281 -0.0672,0.0866 -0.15886,0.12424 -0.0916,0.0377 -0.19552,0.0377 -0.10489,0 -0.19552,-0.0377 -0.0906,-0.0377 -0.15784,-0.12424 -0.0662,-0.0866 -0.10489,-0.22709 -0.0377,-0.14154 -0.0377,-0.34928 0,-0.21691 0.0377,-0.35845 0.0387,-0.14257 0.10591,-0.22709 0.0672,-0.0845 0.15886,-0.11813 0.0917,-0.0346 0.19959,-0.0346 0.10285,0 0.19246,0.0346 0.0906,0.0336 0.15785,0.11813 0.0672,0.0845 0.1059,0.22709 0.0387,0.14154 0.0387,0.35845 z m -0.18636,0 q 0,-0.17108 -0.0204,-0.28412 -0.0204,-0.11405 -0.0601,-0.18126 -0.0397,-0.0682 -0.0978,-0.0957 -0.057,-0.0285 -0.13035,-0.0285 -0.0774,0 -0.13646,0.0285 -0.0591,0.0285 -0.0998,0.0967 -0.0397,0.0672 -0.0601,0.18126 -0.0204,0.11304 -0.0204,0.2831 0,0.16497 0.0204,0.278 0.0214,0.11304 0.0611,0.18228 0.0407,0.0682 0.0988,0.0988 0.0581,0.0295 0.13239,0.0295 0.0723,0 0.13034,-0.0295 0.0581,-0.0306 0.0978,-0.0988 0.0407,-0.0692 0.0621,-0.18228 0.0224,-0.11303 0.0224,-0.278 z" />
        <path
           id="path7773"
           style=""
           d="m 160.52449,681.72843 q 0,0.20672 -0.0397,0.34827 -0.0387,0.14053 -0.10692,0.2281 -0.0672,0.0866 -0.15886,0.12424 -0.0916,0.0377 -0.19552,0.0377 -0.10489,0 -0.19552,-0.0377 -0.0906,-0.0377 -0.15784,-0.12424 -0.0662,-0.0866 -0.10489,-0.22709 -0.0377,-0.14154 -0.0377,-0.34928 0,-0.21691 0.0377,-0.35845 0.0387,-0.14257 0.1059,-0.22709 0.0672,-0.0845 0.15886,-0.11813 0.0916,-0.0346 0.1996,-0.0346 0.10285,0 0.19246,0.0346 0.0906,0.0336 0.15784,0.11813 0.0672,0.0845 0.10591,0.22709 0.0387,0.14154 0.0387,0.35845 z m -0.18635,0 q 0,-0.17108 -0.0204,-0.28412 -0.0204,-0.11405 -0.0601,-0.18126 -0.0397,-0.0682 -0.0978,-0.0957 -0.057,-0.0285 -0.13034,-0.0285 -0.0774,0 -0.13646,0.0285 -0.0591,0.0285 -0.0998,0.0967 -0.0397,0.0672 -0.0601,0.18126 -0.0204,0.11304 -0.0204,0.2831 0,0.16497 0.0204,0.278 0.0214,0.11304 0.0611,0.18228 0.0407,0.0682 0.0988,0.0988 0.058,0.0295 0.13238,0.0295 0.0723,0 0.13035,-0.0295 0.058,-0.0306 0.0978,-0.0988 0.0407,-0.0692 0.0621,-0.18228 0.0224,-0.11303 0.0224,-0.278 z" />
      </g>
    </g>
    <rect
       style="opacity:0.95;fill:#ff0000;fill-opacity:1;stroke:none;stroke-width:1.66299999;stroke-linecap:square;stroke-linejoin:miter;stroke-miterlimit:4;stroke-dasharray:none;stroke-dashoffset:0;stroke-opacity:1"
       id="origin"
       width="1"
       height="1"
       x="158.24236"
       y="681.53619" />
  </g>
</svg>
